<svg width="123" height="134" viewBox="0 0 123 134" fill="none" xmlns="http://www.w3.org/2000/svg">
<path d="M59.2995 123.978C70.0814 123.854 80.3853 124.46 90.7015 123.286C99.9314 122.236 106.54 117.638 111.201 109.929C113.437 106.231 115.371 102.349 117.394 98.5246C118.198 97.0036 119.197 96.1173 120.974 96.9532C122.649 97.7413 122.207 99.0753 121.8 100.376C118.667 110.379 115.487 120.369 112.423 130.393C111.65 132.923 110.081 133.682 107.599 133.679C75.7755 133.642 43.9516 133.673 12.1277 133.627C10.4778 133.625 7.98952 134.219 8.08909 131.32C8.16936 128.984 10.2921 129.254 11.8935 129.097C23.4758 127.963 25.5507 125.941 26.14 114.36C27.487 87.8893 26.3696 61.3954 26.7727 34.9153C26.8232 31.5978 25.519 30.5357 22.3415 30.6135C16.1806 30.7646 10.0125 30.6837 3.84857 30.6082C2.10588 30.5868 -0.191638 30.9071 0.0127379 28.0441C0.189054 25.5742 2.29846 26.0078 3.84852 25.9942C11.1415 25.9297 18.4354 25.9655 25.9377 25.9655C26.4921 21.3093 26.1532 17.1906 25.4933 13.1509C24.7991 8.90086 21.8179 6.57945 17.7419 5.67052C15.7948 5.23631 13.7972 5.03114 11.8253 4.70509C10.1468 4.42757 7.74483 5.03389 8.01108 2.09731C8.23086 -0.326859 10.3083 0.0373083 11.8709 0.0334623C29.3656 -0.00978067 46.8604 -0.00761388 64.3552 0.0200651C66.1566 0.0229031 68.2954 -0.131882 68.2509 2.62389C68.2132 4.96638 66.3246 4.99342 64.6735 5.18034C63.516 5.31139 62.3464 5.3311 61.1838 5.42101C50.2485 6.26643 46.4389 10.4893 46.3772 21.31C46.3578 24.7196 47.3886 26.1452 50.9403 26.0103C56.4308 25.8018 61.951 25.7103 67.4264 26.0657C70.029 26.2346 74.8323 24.1412 74.8318 28.1528C74.8311 32.833 69.8566 30.3145 67.1676 30.5226C61.702 30.9457 56.1766 30.7761 50.6838 30.602C47.3823 30.4973 46.3434 31.8532 46.3546 35.0316C46.4472 61.1903 46.3463 87.3498 46.4965 113.508C46.5431 121.62 49.4677 123.862 59.2995 123.978Z" fill="white"/>
</svg>
