<svg width="653" height="179" viewBox="0 0 653 179" fill="none" xmlns="http://www.w3.org/2000/svg">
<path d="M349.497 141.848C333.769 136.084 325.847 124.154 323.103 108.935C319.525 89.093 325.287 71.6133 339.765 57.4949C351.293 46.2537 366.875 44.1172 381.261 51.0252C382.131 51.4429 382.926 52.1842 384.788 51.526C384.788 45.7228 384.784 39.6398 384.789 33.5567C384.793 29.5611 384.871 25.5643 384.802 21.5701C384.713 16.4199 382.906 14.7671 377.718 14.9831C376.391 15.0383 375.069 15.2523 373.749 15.4235C372.576 15.5756 371.372 15.8407 370.835 14.3386C370.314 12.8826 370.618 11.6016 372.082 10.9944C380.375 7.5551 388.597 3.90394 397.048 0.903151C401.419 -0.648698 402.224 2.52324 402.21 6.2578C402.115 31.2303 402.107 56.2033 402.128 81.1761C402.138 93.828 402.216 106.48 402.361 119.132C402.459 127.627 404.635 129.561 412.729 128.521C414.316 128.318 415.749 127.96 416.275 130.032C416.769 131.977 415.5 132.727 414.041 133.338C406.523 136.487 399.069 139.804 391.459 142.711C386.698 144.529 384.945 143.121 384.813 138.165C384.773 136.683 384.807 135.198 384.807 132.11C374.147 141.563 362.998 145.9 349.497 141.848ZM377.86 128.502C380.799 126.199 384.775 124.733 384.767 120.038C384.742 105.214 385.051 90.3787 384.555 75.5707C384.211 65.3088 376.439 56.471 367.448 54.5965C359.472 52.9336 351.074 58.1863 346.166 67.8856C340.833 78.4253 340.424 89.667 341.849 101.025C342.881 109.25 345.955 116.795 351.507 123.134C358.47 131.083 367.51 133.087 377.86 128.502Z" fill="black"/>
<path d="M233.001 168.645C343.619 168.645 453.736 168.646 563.854 168.648C565.686 168.648 567.528 168.781 569.35 168.643C573.416 168.335 573.293 170.993 573.382 173.831C573.478 176.892 572.588 178.663 569.184 178.357C568.028 178.253 566.853 178.353 565.687 178.353C400.094 178.356 234.502 178.359 68.9088 178.36C67.2429 178.36 65.5681 178.242 63.9128 178.373C60.2565 178.663 58.5448 177.559 58.5313 173.398C58.5172 169.041 60.614 168.606 64.0766 168.609C120.218 168.664 176.36 168.646 233.001 168.645Z" fill="black"/>
<path d="M60.2136 130.682C70.9954 130.557 81.2994 131.163 91.6156 129.989C100.846 128.939 107.454 124.341 112.115 116.632C114.351 112.934 116.285 109.052 118.308 105.228C119.112 103.707 120.111 102.82 121.888 103.656C123.564 104.444 123.121 105.778 122.714 107.079C119.581 117.082 116.401 127.072 113.337 137.097C112.564 139.627 110.995 140.385 108.514 140.382C76.6896 140.345 44.8656 140.376 13.0417 140.33C11.3919 140.328 8.90358 140.922 9.00316 138.023C9.08342 135.687 11.2061 135.957 12.8075 135.801C24.3899 134.666 26.4648 132.644 27.0541 121.063C28.401 94.5924 27.2836 68.0985 27.6868 41.6184C27.7373 38.3009 26.433 37.2388 23.2556 37.3166C17.0947 37.4677 10.9266 37.3868 4.76263 37.3113C3.01994 37.29 0.722424 37.6102 0.9268 34.7472C1.10312 32.2774 3.21252 32.711 4.76259 32.6973C12.0556 32.6329 19.3495 32.6686 26.8518 32.6686C27.4061 28.0124 27.0672 23.8938 26.4074 19.854C25.7131 15.604 22.7319 13.2826 18.656 12.3736C16.7089 11.9394 14.7113 11.7343 12.7393 11.4082C11.0609 11.1307 8.65889 11.737 8.92514 8.80043C9.14493 6.37627 11.2224 6.74043 12.7849 6.73659C30.2796 6.69334 47.7745 6.69551 65.2693 6.72319C67.0707 6.72603 69.2095 6.57124 69.165 9.32701C69.1272 11.6695 67.2387 11.6965 65.5875 11.8835C64.4301 12.0145 63.2604 12.0342 62.0978 12.1241C51.1625 12.9696 47.3529 17.1925 47.2913 28.0131C47.2718 31.4228 48.3027 32.8483 51.8544 32.7134C57.3448 32.5049 62.8651 32.4135 68.3405 32.7688C70.943 32.9377 75.7464 30.8443 75.7458 34.8559C75.7452 39.5361 70.7706 37.0176 68.0817 37.2258C62.616 37.6488 57.0907 37.4792 51.5979 37.3051C48.2964 37.2005 47.2574 38.5563 47.2687 41.7348C47.3612 67.8934 47.2603 94.0529 47.4106 120.211C47.4572 128.323 50.3818 130.565 60.2136 130.682Z" fill="black"/>
<path d="M248.91 112C249.038 117.159 249.112 121.821 249.307 126.478C249.551 132.332 252.343 135.163 258.245 135.687C258.908 135.745 259.578 135.727 260.24 135.79C261.668 135.925 262.898 136.362 262.949 138.087C263.005 139.941 261.633 140.267 260.256 140.272C247.266 140.315 234.275 140.32 221.284 140.308C219.883 140.307 218.513 140.026 218.597 138.159C218.672 136.487 219.907 136.097 221.305 135.777C229.547 133.888 231.362 132.633 231.448 124.974C231.66 106.175 232.603 87.3447 230.823 68.5714C230.242 62.444 228.354 61.2521 222.259 62.1378C220.355 62.4145 218.079 63.3235 217.397 60.3807C216.763 57.6451 219.299 57.5693 220.777 56.9394C227.665 54.0057 234.569 51.094 241.576 48.4645C247.516 46.2354 249.3 47.7041 248.819 53.9474C248.577 57.0812 247.951 60.2217 249.378 63.7387C252.943 60.6008 256.239 57.4532 259.795 54.6325C264.409 50.9714 269.52 48.0979 275.55 47.7054C290.806 46.7124 299.428 54.5056 301.386 70.4519C302.793 81.9167 301.912 93.4013 302.173 104.874C302.321 111.367 302.23 117.865 302.332 124.359C302.462 132.552 304.269 134.617 312.187 135.729C313.738 135.947 315.266 136.039 315.336 138.107C315.414 140.376 313.722 140.31 312.23 140.313C299.572 140.338 286.914 140.345 274.256 140.306C272.806 140.302 271.019 140.369 270.971 138.197C270.927 136.153 272.536 135.976 274.07 135.737C283.353 134.292 284.649 132.853 284.674 123.638C284.714 108.981 284.69 94.325 284.692 79.6687C284.693 79.3356 284.714 79.0005 284.685 78.6697C284.158 72.5231 284.254 65.6881 277.955 62.4372C271.36 59.0332 264.722 61.0688 258.532 64.7215C251.894 68.639 248.033 73.5247 248.733 82.035C249.536 91.7957 248.913 101.674 248.91 112Z" fill="black"/>
<path d="M140.43 77.5846C136.937 70.6232 138.007 63.7863 143.254 57.99C148.145 52.5871 154.378 49.4814 161.441 48.3475C169.867 46.9947 178.341 46.9263 186.604 49.5887C196.246 52.6953 201.185 59.3866 201.318 69.7383C201.524 85.7143 200.899 101.705 201.96 117.663C202.2 121.274 200.44 126.095 204.637 128.078C208.833 130.06 210.792 125.295 213.617 123.274C214.258 122.815 214.951 122.429 215.898 121.835C217.298 124.522 217.347 126.906 215.624 129.03C212.37 133.043 208.92 136.928 204.395 139.563C193.988 145.624 186.727 141.978 184.054 128.839C181.21 130.909 178.516 132.745 175.958 134.754C168.871 140.32 161.114 143.839 151.913 141.914C135.135 138.406 128.747 116.693 140.466 103.227C145.847 97.0431 152.992 93.3527 160.263 90.0226C166.611 87.1153 173.111 84.5003 179.673 82.1134C183.329 80.7839 185.193 79.1535 184.248 74.8808C183.466 71.3457 183.887 67.5748 182.639 64.0634C179.479 55.1665 166.78 51.6575 159.418 57.6456C157.211 59.4406 156.125 61.7757 156.004 64.5851C155.904 66.9132 155.956 69.2558 155.716 71.5687C154.825 80.1523 147.818 83.0756 140.43 77.5846ZM177.753 90.3551C172.222 92.6311 166.691 94.9182 161.8 98.4472C157.37 101.644 154.001 105.588 152.72 111.098C150.763 119.508 156.522 128.985 164.218 129.609C171.436 130.195 176.75 125.945 182.178 122.113C186.122 119.328 184.459 115.143 184.597 111.514C184.824 105.542 184.7 99.5544 184.625 93.5748C184.606 92.0022 185.2 90.23 183.694 88.878C181.772 88.5436 180.144 89.4253 177.753 90.3551Z" fill="black"/>
<path d="M492.036 60.0503C496.372 65.8068 498.422 72.0444 499.315 78.7662C499.905 83.2026 498.426 85.056 493.676 84.9974C477.353 84.7962 461.025 84.9152 444.698 84.9371C438.285 84.9456 437.701 85.3569 438.393 91.7882C439.57 102.733 443.656 112.38 452.246 119.697C465.16 130.696 484.182 127.095 492.239 112.147C492.871 110.975 493.373 109.731 494.038 108.579C494.812 107.241 495.105 105.034 497.479 105.945C499.425 106.692 499.556 108.526 499.133 110.186C495.431 124.71 487.829 136.331 473.151 141.422C459.514 146.152 447.039 142.88 436.814 132.814C424.89 121.074 421.773 106.18 423.131 90.0769C423.999 79.7905 426.905 70.1673 433.385 61.8721C448.101 43.0374 477.653 41.9619 492.036 60.0503ZM455.393 55.8137C446.635 58.0594 441.765 64.0804 439.003 72.3456C437.702 76.2409 438.569 77.9416 442.874 77.8913C453.014 77.7728 463.158 77.7616 473.297 77.9017C476.903 77.9515 477.994 76.4922 477.563 73.0795C476.122 61.6684 467.784 54.7988 455.393 55.8137Z" fill="black"/>
<path d="M550.837 140.364C539.21 140.365 528.057 140.395 516.905 140.335C515.047 140.325 512.377 140.932 512.326 137.944C512.28 135.196 514.824 135.917 516.499 135.692C522.222 134.923 524.656 132.488 524.691 126.397C524.858 97.2717 524.888 68.1461 524.929 39.0206C524.936 33.5299 524.921 28.0315 524.648 22.55C524.34 16.3652 522.195 14.6815 516.084 15.2152C514.226 15.3774 511.8 16.529 511.114 13.6209C510.424 10.6994 513.269 10.6452 514.887 9.936C521.132 7.19934 527.464 4.66064 533.763 2.04703C540.897 -0.912843 542.343 -0.00781488 542.345 7.51715C542.356 41.806 542.379 76.0948 542.324 110.384C542.315 115.886 542.601 121.353 543.164 126.818C543.777 132.77 545.992 135.005 551.887 135.69C553.844 135.917 557.017 135.006 556.667 138.355C556.343 141.455 553.242 139.968 550.837 140.364Z" fill="black"/>
<path d="M576.437 134.654C580.096 132.543 580.745 129.34 580.756 125.888C580.845 97.2426 580.935 68.5967 580.976 39.9509C580.984 34.124 580.935 28.2889 580.636 22.4719C580.318 16.3058 578.124 14.6169 571.993 15.2402C570.114 15.4313 567.777 16.5324 567.071 13.6017C566.434 10.9546 568.92 10.7677 570.442 10.1117C577.014 7.27909 583.632 4.55054 590.26 1.84775C596.839 -0.835232 598.335 0.136446 598.338 7.07889C598.352 41.89 598.312 76.7011 598.384 111.512C598.395 116.661 598.782 121.819 599.209 126.955C599.697 132.837 602.069 135.066 608.035 135.673C608.697 135.74 609.366 135.727 610.03 135.776C611.469 135.881 612.708 136.307 612.79 138.019C612.878 139.824 611.579 140.286 610.162 140.29C597.171 140.324 584.18 140.319 571.189 140.304C569.77 140.303 568.44 139.919 568.278 138.228C568.075 136.102 569.652 135.946 571.217 135.731C572.849 135.506 574.458 135.119 576.437 134.654Z" fill="black"/>
<path d="M638.526 120.787C644.588 120.101 649.355 121.608 651.564 127.208C653.374 131.796 652.846 136.4 649.06 140.033C645.503 143.447 641.251 144.382 636.693 142.393C632.198 140.431 629.69 136.844 629.735 131.871C629.786 126.214 632.864 122.662 638.526 120.787Z" fill="black"/>
</svg>
