<svg width="652" height="179" viewBox="0 0 652 179" fill="none" xmlns="http://www.w3.org/2000/svg">
 <path
  d="M383.854 18.6188C380.119 13.1148 375.376 15.7486 369.883 16.5088C370.31 14.8743 370.287 12.845 371.004 12.5371C379.531 8.87488 388.151 5.42637 396.799 2.05536C397.765 1.67884 399.051 2.12403 400.538 2.2078C400.538 4.18683 400.538 5.99808 400.538 7.8093C400.538 36.9491 400.516 66.0889 400.553 95.2286C400.562 102.88 400.728 110.532 400.861 118.183C401.069 130.093 402.614 131.419 415.354 129.567C414.649 131.285 414.472 133.181 413.623 133.556C405.582 137.102 397.452 140.456 389.275 143.682C388.01 144.182 386.378 143.752 384.416 143.752C384.416 139.88 384.416 136.308 384.416 131.738C382.442 133.403 381.252 134.389 380.081 135.398C365.374 148.074 345.114 146.437 332.653 131.561C318.052 114.13 318.041 87.8359 331.897 66.9725C342.413 51.1371 364.284 41.7804 383.994 54.7867C383.994 42.8306 383.994 30.9422 383.854 18.6188ZM367.464 132.816C379.668 131.558 384.525 126.424 384.444 114.614C384.355 101.485 384.644 88.3242 383.804 75.2389C383.156 65.1436 374.841 56.3929 366.456 55.1068C357.742 53.7703 349.398 58.633 344.845 68.6151C337.309 85.1372 337.545 101.836 345.674 118.078C349.901 126.525 356.668 132.151 367.464 132.816Z"
  fill="#F6F6F6" />
 <path
  d="M345.002 170C420.811 170 496.12 170 571.716 170C571.716 172.951 571.716 175.69 571.716 178.718C400.724 178.718 229.65 178.718 58.2891 178.718C58.2891 176.049 58.2891 173.31 58.2891 170C153.638 170 249.07 170 345.002 170Z"
  fill="white" />
 <path
  d="M49.5525 16.6166C45.039 21.8439 46.2015 27.7728 46.0397 33.8905C55.6705 33.8905 65.0973 33.8905 74.7592 33.8905C74.7592 35.3432 74.7592 36.4111 74.7592 37.8508C65.3889 37.8508 55.9501 37.8508 46.1965 37.8508C46.0568 39.0751 45.8588 39.9967 45.8601 40.918C45.8969 67.411 45.9152 93.9042 46.0281 120.397C46.0674 129.634 48.392 132.028 57.5137 132.114C67.4889 132.209 77.4716 132.2 87.4422 131.92C98.2353 131.618 106.551 126.748 112.014 117.349C114.012 113.911 115.613 110.239 117.669 106.839C118.348 105.717 119.89 105.117 121.037 104.278C121.395 104.636 121.753 104.994 122.112 105.352C118.394 117.188 114.676 129.025 110.961 140.853C76.5882 140.853 42.462 140.853 8.3358 140.853C8.07976 140.533 7.82371 140.213 7.56767 139.893C8.45451 139.088 9.22813 137.835 10.2527 137.576C12.1583 137.096 14.2214 137.286 16.199 137.038C21.7549 136.341 25.2697 133.073 26.1119 127.519C26.6087 124.242 26.8661 120.898 26.8736 117.583C26.9331 91.2698 26.9068 64.9564 26.9068 38.2308C18.1039 38.2308 9.35919 38.2308 0.249329 38.2308C0.166367 36.6671 0.104203 35.4955 0.0234375 33.9731C9.22929 33.9731 18.0168 33.9731 26.7947 33.9731C26.9229 15.1 24.825 12.5928 6.69446 11.8004C8.6042 10.02 9.5984 8.28145 10.6074 8.27284C29.5845 8.11076 48.5634 8.15355 67.7888 8.15355C67.8512 9.52732 67.9006 10.6173 67.8991 10.5835C61.5335 12.6116 55.6838 14.4752 49.5525 16.6166Z"
  fill="#FBFBFB" />
 <path
  d="M284.468 110.999C284.361 100.343 284.255 90.1866 284.143 80.0307C284.136 79.3654 284.095 78.7 284.056 78.0355C283.138 62.2478 273.024 56.6487 259.084 64.2227C258.21 64.6974 257.423 65.3283 256.567 65.8383C250.003 69.749 246.435 74.7123 246.974 83.161C247.864 97.0984 247.329 111.123 247.562 125.108C247.715 134.305 249.77 136.258 258.939 137.227C260.158 137.356 261.261 138.576 262.418 139.29C262.195 139.764 261.972 140.237 261.748 140.71C247.32 140.71 232.891 140.71 216.695 140.71C218.53 139.049 219.46 137.469 220.628 137.268C228.401 135.929 230.83 133.782 230.898 126.01C231.055 108.024 231.073 90.031 230.723 72.049C230.549 63.0657 228.563 61.8605 219.766 62.8591C218.584 62.9933 217.251 61.7953 216.125 60.4662C226.556 56.4259 235.758 50.1937 247.306 48.6172C247.306 54.883 247.306 60.4437 247.306 66.0044C247.762 66.3229 248.218 66.6415 248.674 66.96C251.272 64.0074 253.636 60.7987 256.52 58.158C261.739 53.3786 267.668 49.5743 274.956 49.0329C289.441 47.9567 298.561 56.1212 299.882 71.9962C300.68 81.5973 300.358 91.292 300.529 100.945C300.685 109.767 300.633 118.597 301.034 127.408C301.362 134.607 303.746 136.6 310.916 137.228C312.219 137.342 313.427 138.533 314.679 139.227C314.465 139.723 314.252 140.219 314.038 140.715C299.472 140.715 284.907 140.715 270.342 140.715C270.083 140.359 269.824 140.003 269.565 139.646C270.748 138.815 271.862 137.396 273.126 137.245C282.489 136.128 283.999 134.534 284.152 124.973C284.224 120.481 284.361 115.99 284.468 110.999Z"
  fill="#F9F9F9" />
 <path
  d="M200.006 78.0161C200.063 92.3328 199.924 106.158 200.322 119.969C200.417 123.283 201.329 128.01 203.579 129.501C207.295 131.962 209.835 127.384 212.497 125.063C213.193 124.456 213.848 123.8 214.522 123.167C214.999 123.399 215.476 123.63 215.953 123.862C214.834 126.527 214.255 129.651 212.47 131.749C209.709 134.993 206.454 138.083 202.827 140.274C192.396 146.572 184.715 141.982 183.793 128.607C179.566 131.693 175.86 135.004 171.614 137.331C167.337 139.677 162.652 142.012 157.919 142.64C148.116 143.942 140.642 139.445 136.621 131.248C132.25 122.334 132.976 110.946 139.896 104.823C146.01 99.4133 153.202 94.9953 160.46 91.1666C167.878 87.2536 175.956 84.5908 184.512 81.0643C183.683 75.6978 183.36 70.0138 181.843 64.6686C179.77 57.3647 172.839 53.9293 164.753 55.2983C157.609 56.5077 154.186 60.9904 154.178 69.1464C154.169 77.7929 152.133 80.872 146.334 81.0074C141.563 81.1187 138.469 78.4665 137.864 73.7502C137.004 67.0375 139.685 61.7085 144.517 57.3602C154.966 47.9579 178.746 45.8674 190.664 53.2839C195.243 56.1335 198.43 60.1312 199.149 65.5994C199.667 69.5422 199.736 73.5439 200.006 78.0161ZM183.049 88.2889C177.867 90.5005 172.386 92.2097 167.585 95.0637C162.685 97.9771 157.72 101.401 154.109 105.712C149.297 111.457 149.835 118.422 153.647 124.81C156.549 129.672 161.298 132.675 166.651 130.86C172.475 128.885 177.733 125.19 183.118 122.041C183.784 121.651 183.953 120.009 183.955 118.946C183.968 108.805 183.895 98.6626 183.049 88.2889Z"
  fill="#FAFAFA" />
 <path
  d="M436.549 87.7112C437.037 99.6838 440.329 109.983 448.255 118.692C458.933 130.425 483.247 132.789 492.539 111.646C493.257 110.014 494.119 108.446 495.707 105.253C496.748 107.887 497.996 109.419 497.719 110.591C494.417 124.584 487.256 135.921 473.504 141.505C461.281 146.468 449.616 144.134 439.203 136.222C430.458 129.578 425.489 120.406 423.63 109.771C420.795 93.553 422.106 77.8579 432.108 64.0094C444.753 46.5021 471.541 43.1765 486.885 57.1986C494.965 64.5822 498.161 74.0908 498.001 85.1831C478.829 85.1831 460.014 85.1357 441.2 85.2708C439.648 85.2819 438.105 86.5317 436.549 87.7112ZM461.779 56.2372C447.75 55.1837 436.905 65.1029 436.988 79.098C450.311 79.098 463.634 79.098 476.948 79.098C477.272 66.9918 472.968 60.3352 461.779 56.2372Z"
  fill="#F8F8F8" />
 <path
  d="M530.001 141.004C523.69 141.004 517.879 141.004 512.068 141.004C511.756 140.584 511.443 140.163 511.131 139.742C512.17 138.88 513.128 137.405 514.261 137.255C522.075 136.221 524.316 134.438 524.373 126.548C524.586 97.2483 524.514 67.9468 524.496 38.6462C524.492 33.3233 524.465 27.9825 524.043 22.6823C523.518 16.0834 520.952 14.5026 514.404 15.6938C512.967 15.9554 511.317 15.054 509.766 14.6881C509.821 14.0768 509.877 13.4654 509.932 12.8539C519.989 8.89084 530.046 4.9277 541.005 0.609375C541.005 3.96081 541.003 5.75833 541.005 7.55582C541.062 46.2003 541.092 84.8449 541.196 123.489C541.219 132.068 542.43 137.19 553.146 137.268C554.111 137.275 555.064 138.823 556.023 139.656C555.796 140.105 555.569 140.555 555.343 141.004C547.062 141.004 538.781 141.004 530.001 141.004Z"
  fill="#FCFCFC" />
 <path
  d="M591 141.007C583.023 141.007 575.546 141.007 568.069 141.007C567.756 140.587 567.444 140.167 567.131 139.747C568.17 138.884 569.127 137.408 570.26 137.258C578.076 136.223 580.316 134.441 580.373 126.551C580.586 97.2522 580.514 67.9507 580.496 38.6501C580.493 33.3272 580.465 27.9865 580.043 22.6862C579.518 16.0865 576.952 14.5047 570.406 15.6958C568.968 15.9575 567.318 15.0571 565.766 14.6918C565.82 14.0806 565.875 13.4695 565.93 12.8583C575.989 8.89328 586.048 4.92825 597.005 0.609375C597.005 3.96167 597.003 5.75909 597.005 7.55652C597.062 46.201 597.092 84.8456 597.196 123.49C597.219 132.092 598.443 137.189 609.145 137.27C610.11 137.277 611.064 138.824 612.024 139.656C611.798 140.107 611.572 140.557 611.346 141.007C604.731 141.007 598.115 141.007 591 141.007Z"
  fill="#FCFCFC" />
 <path
  d="M632.875 141.186C629.243 137.369 628.062 133.284 629.983 128.636C631.556 124.831 634.431 122.501 638.572 122.018C643.929 121.393 648.198 123.84 650.208 128.532C652.11 132.972 650.956 138.02 647.319 141.171C643.269 144.679 638.773 144.756 632.875 141.186Z"
  fill="#F9F9F9" />
</svg>
