<svg version="1.1" id="Layer_1" xmlns="http://www.w3.org/2000/svg" xmlns:xlink="http://www.w3.org/1999/xlink" x="0px" y="0px"
	 width="100%" viewBox="0 0 1000 1000" enable-background="new 0 0 1000 1000" xml:space="preserve">
<path fill="#000000" opacity="1.000000" stroke="none" 
	d="
M537.000000,1001.000000 
	C358.000000,1001.000000 179.500000,1001.000000 1.000000,1001.000000 
	C1.000000,667.666687 1.000000,334.333344 1.000000,1.000000 
	C334.333344,1.000000 667.666687,1.000000 1001.000000,1.000000 
	C1001.000000,334.333344 1001.000000,667.666687 1001.000000,1001.000000 
	C846.500000,1001.000000 692.000000,1001.000000 537.000000,1001.000000 
M562.997131,416.050385 
	C562.997131,427.938812 562.997131,439.827271 562.997131,451.783295 
	C543.287354,438.777039 521.416138,448.133698 510.899475,463.969086 
	C497.043671,484.832489 497.054901,511.126465 511.656128,528.557495 
	C524.116821,543.433167 544.376526,545.070679 559.084106,532.394226 
	C560.254578,531.385376 561.444885,530.399597 563.418579,528.734436 
	C563.418579,533.304504 563.418579,536.876648 563.418579,540.748718 
	C565.380981,540.748718 567.012878,541.178284 568.278259,540.678955 
	C576.455017,537.452942 584.584534,534.098755 592.626221,530.552246 
	C593.474854,530.178040 593.651978,528.281311 594.356995,526.563904 
	C581.617004,528.415466 580.071838,527.089355 579.864380,515.179565 
	C579.731018,507.528595 579.564880,499.876831 579.555420,492.225281 
	C579.519287,463.085541 579.540833,433.945740 579.540833,404.805939 
	C579.540833,402.994720 579.540833,401.183472 579.540833,399.204437 
	C578.054260,399.120667 576.767944,398.675476 575.801941,399.052002 
	C567.153992,402.423004 558.533508,405.871521 550.006531,409.533783 
	C549.289795,409.841614 549.312439,411.870972 548.885925,413.505402 
	C554.378967,412.745239 559.122375,410.111420 562.997131,416.050385 
M523.500000,567.000061 
	C428.067688,567.000061 332.635345,567.000061 237.286713,567.000061 
	C237.286713,570.309692 237.286713,573.049011 237.286713,575.718445 
	C408.647736,575.718445 579.721985,575.718445 750.713318,575.718445 
	C750.713318,572.690369 750.713318,569.951050 750.713318,567.000061 
	C675.117920,567.000061 599.808960,567.000061 523.500000,567.000061 
M228.835602,413.339081 
	C234.685287,411.475403 240.534973,409.611755 246.900558,407.583710 
	C246.902084,407.617523 246.852646,406.527527 246.790314,405.153748 
	C227.564819,405.153748 208.585953,405.110962 189.608841,405.273041 
	C188.599869,405.281647 187.605667,407.020233 185.695923,408.800568 
	C203.826508,409.592987 205.924316,412.100189 205.796127,430.973267 
	C197.018234,430.973267 188.230759,430.973267 179.024902,430.973267 
	C179.105667,432.495728 179.167831,433.667297 179.250793,435.231018 
	C188.360657,435.231018 197.105316,435.231018 205.908249,435.231018 
	C205.908249,461.956604 205.934601,488.269989 205.875107,514.583191 
	C205.867615,517.897888 205.610153,521.242126 205.113342,524.518860 
	C204.271149,530.073364 200.756393,533.341125 195.200470,534.037720 
	C193.222824,534.285706 191.159760,534.096313 189.254120,534.576538 
	C188.229599,534.834778 187.455978,536.088562 186.569138,536.893127 
	C186.825180,537.213318 187.081223,537.533447 187.337265,537.853638 
	C221.463486,537.853638 255.589706,537.853638 289.962311,537.853638 
	C293.677704,526.024902 297.395447,514.188660 301.113159,502.352386 
	C300.754883,501.994354 300.396576,501.636322 300.038300,501.278290 
	C298.891235,502.117218 297.349823,502.717560 296.670898,503.839691 
	C294.614288,507.239105 293.013885,510.911591 291.015564,514.349670 
	C285.552673,523.748657 277.236725,528.618469 266.443665,528.920654 
	C256.473083,529.199890 246.490402,529.209229 236.515167,529.114502 
	C227.393463,529.027832 225.068909,526.633911 225.029556,517.397156 
	C224.916702,490.904358 224.898392,464.411224 224.861588,437.918182 
	C224.860306,436.996857 225.058273,436.075287 225.197922,434.851013 
	C234.951614,434.851013 244.390411,434.851013 253.760666,434.851013 
	C253.760666,433.411285 253.760666,432.343414 253.760666,430.890747 
	C244.098755,430.890747 234.671936,430.890747 225.041214,430.890747 
	C225.202972,424.773041 224.040466,418.844055 228.835602,413.339081 
M463.468536,508.500427 
	C463.361450,512.991699 463.225250,517.482422 463.153351,521.974304 
	C463.000214,531.536072 461.489532,533.129456 452.127228,534.246521 
	C450.862579,534.397461 449.749176,535.816162 448.565704,536.647766 
	C448.824707,537.004150 449.083710,537.360535 449.342712,537.716919 
	C463.908020,537.716919 478.473328,537.716919 493.038635,537.716919 
	C493.252502,537.220825 493.466370,536.724731 493.680237,536.228638 
	C492.428101,535.534790 491.219482,534.343811 489.916565,534.229614 
	C482.746918,533.601440 480.362427,531.608215 480.034790,524.409363 
	C479.633789,515.598999 479.685638,506.768219 479.529724,497.946503 
	C479.359131,488.293640 479.680817,478.598938 478.882416,468.997772 
	C477.562347,453.122864 468.442291,444.958313 453.956482,446.034485 
	C446.668610,446.575958 440.739685,450.380219 435.520569,455.159576 
	C432.636841,457.800323 430.273132,461.008972 427.675049,463.961639 
	C427.218994,463.643097 426.762970,463.324554 426.306915,463.006012 
	C426.306915,457.445312 426.306915,451.884613 426.306915,445.618805 
	C414.758484,447.195282 405.556610,453.427521 395.125885,457.467804 
	C396.251801,458.796967 397.585022,459.994934 398.766968,459.860748 
	C407.564178,458.862122 409.549408,460.067352 409.724121,469.050659 
	C410.073853,487.032623 410.056152,505.025787 409.898895,523.011780 
	C409.830963,530.784058 407.402039,532.930725 399.628815,534.269836 
	C398.461182,534.471008 397.530975,536.050232 395.695801,537.712036 
	C411.892303,537.712036 426.320801,537.712036 440.749329,537.712036 
	C440.972443,537.238586 441.195557,536.765198 441.418671,536.291748 
	C440.261963,535.577271 439.158630,534.357544 437.940002,534.228760 
	C428.771179,533.259338 426.715637,531.307007 426.562714,522.109253 
	C426.330261,508.124359 426.864929,494.100067 425.975281,480.162659 
	C425.436005,471.713959 429.004089,466.750610 435.567871,462.839966 
	C436.423950,462.329926 437.211151,461.698975 438.084747,461.224304 
	C452.024780,453.650360 462.138855,459.249390 463.056915,475.037109 
	C463.095581,475.701660 463.136780,476.366974 463.144073,477.032288 
	C463.255463,487.188263 463.361389,497.344299 463.468536,508.500427 
M379.009155,474.520782 
	C378.739655,470.545349 378.670197,466.543671 378.152161,462.600891 
	C377.433746,457.132629 374.246826,453.134918 369.667542,450.285370 
	C357.749146,442.868866 333.968964,444.959320 323.520355,454.361633 
	C318.688049,458.709991 316.006897,464.038940 316.867584,470.751678 
	C317.472290,475.467926 320.566498,478.120178 325.337463,478.008820 
	C331.136169,477.873474 333.172455,474.794312 333.181152,466.147888 
	C333.189392,457.991821 336.612488,453.509155 343.756134,452.299713 
	C351.842346,450.930695 358.773590,454.366150 360.846222,461.670074 
	C362.363007,467.015289 362.686188,472.699219 363.515686,478.065704 
	C354.958954,481.592224 346.881378,484.255066 339.463318,488.168091 
	C332.205261,491.996735 325.013367,496.414795 318.899109,501.824860 
	C311.979462,507.947571 311.253052,519.335754 315.624786,528.249451 
	C319.645142,536.446716 327.119781,540.943665 336.922028,539.641907 
	C341.655518,539.013245 346.340057,536.677979 350.617645,534.332764 
	C354.863190,532.005249 358.569855,528.694824 362.796326,525.608398 
	C363.718658,538.983215 371.399536,543.573486 381.830017,537.275146 
	C385.457886,535.084412 388.712769,531.994690 391.473450,528.750122 
	C393.258484,526.652222 393.837250,523.527954 394.956604,520.863586 
	C394.479431,520.631836 394.002258,520.400085 393.525085,520.168335 
	C392.851196,520.801880 392.196686,521.457581 391.500000,522.064941 
	C388.838287,524.385132 386.298248,528.963745 382.582123,526.501953 
	C380.332092,525.011353 379.420410,520.283997 379.324890,516.969971 
	C378.926941,503.159851 379.066650,489.334229 379.009155,474.520782 
M615.554199,484.209747 
	C617.101318,483.535461 618.644226,482.285583 620.196106,482.274475 
	C639.010254,482.139374 657.825806,482.186829 676.997375,482.186829 
	C677.157227,471.094482 673.961365,461.585968 665.881409,454.202301 
	C650.537048,440.180176 623.749268,443.505798 611.104675,461.013123 
	C601.102722,474.861572 599.791748,490.556763 602.626526,506.774994 
	C604.485352,517.409241 609.454468,526.582153 618.199036,533.226013 
	C628.612854,541.138123 640.277344,543.471802 652.500671,538.508484 
	C666.252075,532.924744 673.413391,521.587830 676.715454,507.594666 
	C676.992004,506.422546 675.744263,504.890717 674.703064,502.257202 
	C673.115234,505.449493 672.253052,507.017822 671.535828,508.649811 
	C662.243591,529.792786 637.929321,527.429199 627.250977,515.695618 
	C619.325623,506.987122 616.033936,496.687500 615.554199,484.209747 
M709.500610,538.005005 
	C717.781372,538.005005 726.062073,538.005005 734.342834,538.005005 
	C734.569519,537.555481 734.796204,537.105957 735.022888,536.656494 
	C734.064392,535.823853 733.111023,534.275330 732.146484,534.268433 
	C721.430115,534.191040 720.219482,529.068726 720.196289,520.489868 
	C720.091797,481.845490 720.061707,443.200897 720.005310,404.556396 
	C720.002686,402.758911 720.005005,400.961395 720.005005,397.609955 
	C709.046448,401.928284 698.989258,405.891418 688.932068,409.854523 
	C688.876587,410.465942 688.821167,411.077332 688.765686,411.688721 
	C690.317505,412.054565 691.966675,412.955994 693.404358,412.694397 
	C699.951965,411.503204 702.518066,413.084015 703.043335,419.682861 
	C703.465210,424.983124 703.492432,430.323883 703.495789,435.646790 
	C703.514099,464.947418 703.585938,494.248901 703.373352,523.548157 
	C703.316162,531.438538 701.075073,533.221985 693.261169,534.255798 
	C692.128052,534.405762 691.170288,535.880981 690.131409,536.742920 
	C690.443542,537.163635 690.755676,537.584290 691.067810,538.005005 
	C696.878906,538.005005 702.689941,538.005005 709.500610,538.005005 
M770.499756,538.005005 
	C777.115295,538.005005 783.730896,538.005005 790.346436,538.005005 
	C790.572144,537.554932 790.797913,537.104797 791.023621,536.654724 
	C790.064270,535.822693 789.110352,534.275574 788.144653,534.268311 
	C777.443054,534.187073 776.219482,529.090332 776.196228,520.488159 
	C776.091736,481.843781 776.061707,443.199249 776.005310,404.554749 
	C776.002686,402.757324 776.005005,400.959900 776.005005,397.607605 
	C765.048218,401.926483 754.989136,405.891510 744.930054,409.856537 
	C744.875244,410.467712 744.820496,411.078857 744.765686,411.690033 
	C746.317993,412.055298 747.967651,412.955719 749.405945,412.694061 
	C755.952026,411.502960 758.518372,413.084778 759.043518,419.684479 
	C759.465271,424.984711 759.492676,430.325470 759.495972,435.648346 
	C759.514221,464.948975 759.586060,494.250427 759.373291,523.549683 
	C759.315979,531.439514 757.075806,533.220947 749.259644,534.255920 
	C748.126770,534.405884 747.169617,535.882385 746.131104,536.745056 
	C746.443787,537.165039 746.756409,537.585022 747.069092,538.005005 
	C754.546021,538.005005 762.022949,538.005005 770.499756,538.005005 
M812.178162,538.413696 
	C817.773926,541.756531 822.269897,541.679382 826.319763,538.171143 
	C829.956909,535.020447 831.110840,529.972351 829.208679,525.532654 
	C827.198364,520.840393 822.929443,518.393982 817.572327,519.018555 
	C813.431641,519.501343 810.556396,521.831238 808.983643,525.636230 
	C807.062317,530.284790 808.243164,534.369690 812.178162,538.413696 
z"/>
<path fill="#F6F6F6" opacity="1.000000" stroke="none" 
	d="
M562.856689,415.615479 
	C559.122375,410.111420 554.378967,412.745239 548.885925,413.505402 
	C549.312439,411.870972 549.289795,409.841614 550.006531,409.533783 
	C558.533508,405.871521 567.153992,402.423004 575.801941,399.052002 
	C576.767944,398.675476 578.054260,399.120667 579.540833,399.204437 
	C579.540833,401.183472 579.540833,402.994720 579.540833,404.805939 
	C579.540833,433.945740 579.519287,463.085541 579.555420,492.225281 
	C579.564880,499.876831 579.731018,507.528595 579.864380,515.179565 
	C580.071838,527.089355 581.617004,528.415466 594.356995,526.563904 
	C593.651978,528.281311 593.474854,530.178040 592.626221,530.552246 
	C584.584534,534.098755 576.455017,537.452942 568.278259,540.678955 
	C567.012878,541.178284 565.380981,540.748718 563.418579,540.748718 
	C563.418579,536.876648 563.418579,533.304504 563.418579,528.734436 
	C561.444885,530.399597 560.254578,531.385376 559.084106,532.394226 
	C544.376526,545.070679 524.116821,543.433167 511.656128,528.557495 
	C497.054901,511.126465 497.043671,484.832489 510.899475,463.969086 
	C521.416138,448.133698 543.287354,438.777039 562.997131,451.783295 
	C562.997131,439.827271 562.997131,427.938812 562.856689,415.615479 
M546.466553,529.813110 
	C558.670471,528.554749 563.528076,523.420776 563.447327,511.610931 
	C563.357544,498.481781 563.646667,485.320801 562.806946,472.235535 
	C562.159180,462.140259 553.843872,453.389587 545.458435,452.103424 
	C536.745300,450.766937 528.400635,455.629639 523.847595,465.611755 
	C516.311646,482.133789 516.547729,498.832367 524.676514,515.075073 
	C528.903748,523.521790 535.670532,529.147888 546.466553,529.813110 
z"/>
<path fill="#FFFFFF" opacity="1.000000" stroke="none" 
	d="
M524.000000,567.000061 
	C599.808960,567.000061 675.117920,567.000061 750.713318,567.000061 
	C750.713318,569.951050 750.713318,572.690369 750.713318,575.718445 
	C579.721985,575.718445 408.647736,575.718445 237.286713,575.718445 
	C237.286713,573.049011 237.286713,570.309692 237.286713,567.000061 
	C332.635345,567.000061 428.067688,567.000061 524.000000,567.000061 
z"/>
<path fill="#FBFBFB" opacity="1.000000" stroke="none" 
	d="
M228.553986,413.616760 
	C224.040466,418.844055 225.202972,424.773041 225.041214,430.890747 
	C234.671936,430.890747 244.098755,430.890747 253.760666,430.890747 
	C253.760666,432.343414 253.760666,433.411285 253.760666,434.851013 
	C244.390411,434.851013 234.951614,434.851013 225.197922,434.851013 
	C225.058273,436.075287 224.860306,436.996857 224.861588,437.918182 
	C224.898392,464.411224 224.916702,490.904358 225.029556,517.397156 
	C225.068909,526.633911 227.393463,529.027832 236.515167,529.114502 
	C246.490402,529.209229 256.473083,529.199890 266.443665,528.920654 
	C277.236725,528.618469 285.552673,523.748657 291.015564,514.349670 
	C293.013885,510.911591 294.614288,507.239105 296.670898,503.839691 
	C297.349823,502.717560 298.891235,502.117218 300.038300,501.278290 
	C300.396576,501.636322 300.754883,501.994354 301.113159,502.352386 
	C297.395447,514.188660 293.677704,526.024902 289.962311,537.853638 
	C255.589706,537.853638 221.463486,537.853638 187.337265,537.853638 
	C187.081223,537.533447 186.825180,537.213318 186.569138,536.893127 
	C187.455978,536.088562 188.229599,534.834778 189.254120,534.576538 
	C191.159760,534.096313 193.222824,534.285706 195.200470,534.037720 
	C200.756393,533.341125 204.271149,530.073364 205.113342,524.518860 
	C205.610153,521.242126 205.867615,517.897888 205.875107,514.583191 
	C205.934601,488.269989 205.908249,461.956604 205.908249,435.231018 
	C197.105316,435.231018 188.360657,435.231018 179.250793,435.231018 
	C179.167831,433.667297 179.105667,432.495728 179.024902,430.973267 
	C188.230759,430.973267 197.018234,430.973267 205.796127,430.973267 
	C205.924316,412.100189 203.826508,409.592987 185.695923,408.800568 
	C187.605667,407.020233 188.599869,405.281647 189.608841,405.273041 
	C208.585953,405.110962 227.564819,405.153748 246.790314,405.153748 
	C246.852646,406.527527 246.902084,407.617523 246.900558,407.583710 
	C240.534973,409.611755 234.685287,411.475403 228.553986,413.616760 
z"/>
<path fill="#F9F9F9" opacity="1.000000" stroke="none" 
	d="
M463.468567,508.000366 
	C463.361389,497.344299 463.255463,487.188263 463.144073,477.032288 
	C463.136780,476.366974 463.095581,475.701660 463.056915,475.037109 
	C462.138855,459.249390 452.024780,453.650360 438.084747,461.224304 
	C437.211151,461.698975 436.423950,462.329926 435.567871,462.839966 
	C429.004089,466.750610 425.436005,471.713959 425.975281,480.162659 
	C426.864929,494.100067 426.330261,508.124359 426.562714,522.109253 
	C426.715637,531.307007 428.771179,533.259338 437.940002,534.228760 
	C439.158630,534.357544 440.261963,535.577271 441.418671,536.291748 
	C441.195557,536.765198 440.972443,537.238586 440.749329,537.712036 
	C426.320801,537.712036 411.892303,537.712036 395.695801,537.712036 
	C397.530975,536.050232 398.461182,534.471008 399.628815,534.269836 
	C407.402039,532.930725 409.830963,530.784058 409.898895,523.011780 
	C410.056152,505.025787 410.073853,487.032623 409.724121,469.050659 
	C409.549408,460.067352 407.564178,458.862122 398.766968,459.860748 
	C397.585022,459.994934 396.251801,458.796967 395.125885,457.467804 
	C405.556610,453.427521 414.758484,447.195282 426.306915,445.618805 
	C426.306915,451.884613 426.306915,457.445312 426.306915,463.006012 
	C426.762970,463.324554 427.218994,463.643097 427.675049,463.961639 
	C430.273132,461.008972 432.636841,457.800323 435.520569,455.159576 
	C440.739685,450.380219 446.668610,446.575958 453.956482,446.034485 
	C468.442291,444.958313 477.562347,453.122864 478.882416,468.997772 
	C479.680817,478.598938 479.359131,488.293640 479.529724,497.946503 
	C479.685638,506.768219 479.633789,515.598999 480.034790,524.409363 
	C480.362427,531.608215 482.746918,533.601440 489.916565,534.229614 
	C491.219482,534.343811 492.428101,535.534790 493.680237,536.228638 
	C493.466370,536.724731 493.252502,537.220825 493.038635,537.716919 
	C478.473328,537.716919 463.908020,537.716919 449.342712,537.716919 
	C449.083710,537.360535 448.824707,537.004150 448.565704,536.647766 
	C449.749176,535.816162 450.862579,534.397461 452.127228,534.246521 
	C461.489532,533.129456 463.000214,531.536072 463.153351,521.974304 
	C463.225250,517.482422 463.361450,512.991699 463.468567,508.000366 
z"/>
<path fill="#FAFAFA" opacity="1.000000" stroke="none" 
	d="
M379.009155,475.017517 
	C379.066650,489.334229 378.926941,503.159851 379.324890,516.969971 
	C379.420410,520.283997 380.332092,525.011353 382.582123,526.501953 
	C386.298248,528.963745 388.838287,524.385132 391.500000,522.064941 
	C392.196686,521.457581 392.851196,520.801880 393.525085,520.168335 
	C394.002258,520.400085 394.479431,520.631836 394.956604,520.863586 
	C393.837250,523.527954 393.258484,526.652222 391.473450,528.750122 
	C388.712769,531.994690 385.457886,535.084412 381.830017,537.275146 
	C371.399536,543.573486 363.718658,538.983215 362.796326,525.608398 
	C358.569855,528.694824 354.863190,532.005249 350.617645,534.332764 
	C346.340057,536.677979 341.655518,539.013245 336.922028,539.641907 
	C327.119781,540.943665 319.645142,536.446716 315.624786,528.249451 
	C311.253052,519.335754 311.979462,507.947571 318.899109,501.824860 
	C325.013367,496.414795 332.205261,491.996735 339.463318,488.168091 
	C346.881378,484.255066 354.958954,481.592224 363.515686,478.065704 
	C362.686188,472.699219 362.363007,467.015289 360.846222,461.670074 
	C358.773590,454.366150 351.842346,450.930695 343.756134,452.299713 
	C336.612488,453.509155 333.189392,457.991821 333.181152,466.147888 
	C333.172455,474.794312 331.136169,477.873474 325.337463,478.008820 
	C320.566498,478.120178 317.472290,475.467926 316.867584,470.751678 
	C316.006897,464.038940 318.688049,458.709991 323.520355,454.361633 
	C333.968964,444.959320 357.749146,442.868866 369.667542,450.285370 
	C374.246826,453.134918 377.433746,457.132629 378.152161,462.600891 
	C378.670197,466.543671 378.739655,470.545349 379.009155,475.017517 
M362.052521,485.290375 
	C356.870209,487.501984 351.389191,489.211151 346.588776,492.065155 
	C341.688507,494.978546 336.723114,498.401947 333.112762,502.712982 
	C328.300751,508.458801 328.837891,515.423767 332.650055,521.811096 
	C335.552124,526.673584 340.301727,529.676208 345.654694,527.861023 
	C351.478149,525.886230 356.735992,522.191345 362.121033,519.042358 
	C362.787537,518.652588 362.956787,517.010315 362.958160,515.947876 
	C362.971466,505.806000 362.898834,495.664032 362.052521,485.290375 
z"/>
<path fill="#F8F8F8" opacity="1.000000" stroke="none" 
	d="
M615.545654,484.714935 
	C616.033936,496.687500 619.325623,506.987122 627.250977,515.695618 
	C637.929321,527.429199 662.243591,529.792786 671.535828,508.649811 
	C672.253052,507.017822 673.115234,505.449493 674.703064,502.257202 
	C675.744263,504.890717 676.992004,506.422546 676.715454,507.594666 
	C673.413391,521.587830 666.252075,532.924744 652.500671,538.508484 
	C640.277344,543.471802 628.612854,541.138123 618.199036,533.226013 
	C609.454468,526.582153 604.485352,517.409241 602.626526,506.774994 
	C599.791748,490.556763 601.102722,474.861572 611.104675,461.013123 
	C623.749268,443.505798 650.537048,440.180176 665.881409,454.202301 
	C673.961365,461.585968 677.157227,471.094482 676.997375,482.186829 
	C657.825806,482.186829 639.010254,482.139374 620.196106,482.274475 
	C618.644226,482.285583 617.101318,483.535461 615.545654,484.714935 
M640.775635,453.240967 
	C626.746033,452.187439 615.901917,462.106598 615.984619,476.101715 
	C629.307068,476.101715 642.630615,476.101715 655.944153,476.101715 
	C656.268921,463.995544 651.964783,457.338928 640.775635,453.240967 
z"/>
<path fill="#FCFCFC" opacity="1.000000" stroke="none" 
	d="
M709.000793,538.005005 
	C702.689941,538.005005 696.878906,538.005005 691.067810,538.005005 
	C690.755676,537.584290 690.443542,537.163635 690.131409,536.742920 
	C691.170288,535.880981 692.128052,534.405762 693.261169,534.255798 
	C701.075073,533.221985 703.316162,531.438538 703.373352,523.548157 
	C703.585938,494.248901 703.514099,464.947418 703.495789,435.646790 
	C703.492432,430.323883 703.465210,424.983124 703.043335,419.682861 
	C702.518066,413.084015 699.951965,411.503204 693.404358,412.694397 
	C691.966675,412.955994 690.317505,412.054565 688.765686,411.688721 
	C688.821167,411.077332 688.876587,410.465942 688.932068,409.854523 
	C698.989258,405.891418 709.046448,401.928284 720.005005,397.609955 
	C720.005005,400.961395 720.002686,402.758911 720.005310,404.556396 
	C720.061707,443.200897 720.091797,481.845490 720.196289,520.489868 
	C720.219482,529.068726 721.430115,534.191040 732.146484,534.268433 
	C733.111023,534.275330 734.064392,535.823853 735.022888,536.656494 
	C734.796204,537.105957 734.569519,537.555481 734.342834,538.005005 
	C726.062073,538.005005 717.781372,538.005005 709.000793,538.005005 
z"/>
<path fill="#FCFCFC" opacity="1.000000" stroke="none" 
	d="
M769.999817,538.005005 
	C762.022949,538.005005 754.546021,538.005005 747.069092,538.005005 
	C746.756409,537.585022 746.443787,537.165039 746.131104,536.745056 
	C747.169617,535.882385 748.126770,534.405884 749.259644,534.255920 
	C757.075806,533.220947 759.315979,531.439514 759.373291,523.549683 
	C759.586060,494.250427 759.514221,464.948975 759.495972,435.648346 
	C759.492676,430.325470 759.465271,424.984711 759.043518,419.684479 
	C758.518372,413.084778 755.952026,411.502960 749.405945,412.694061 
	C747.967651,412.955719 746.317993,412.055298 744.765686,411.690033 
	C744.820496,411.078857 744.875244,410.467712 744.930054,409.856537 
	C754.989136,405.891510 765.048218,401.926483 776.005005,397.607605 
	C776.005005,400.959900 776.002686,402.757324 776.005310,404.554749 
	C776.061707,443.199249 776.091736,481.843781 776.196228,520.488159 
	C776.219482,529.090332 777.443054,534.187073 788.144653,534.268311 
	C789.110352,534.275574 790.064270,535.822693 791.023621,536.654724 
	C790.797913,537.104797 790.572144,537.554932 790.346436,538.005005 
	C783.730896,538.005005 777.115295,538.005005 769.999817,538.005005 
z"/>
<path fill="#F9F9F9" opacity="1.000000" stroke="none" 
	d="
M811.875854,538.186523 
	C808.243164,534.369690 807.062317,530.284790 808.983643,525.636230 
	C810.556396,521.831238 813.431641,519.501343 817.572327,519.018555 
	C822.929443,518.393982 827.198364,520.840393 829.208679,525.532654 
	C831.110840,529.972351 829.956909,535.020447 826.319763,538.171143 
	C822.269897,541.679382 817.773926,541.756531 811.875854,538.186523 
z"/>
<path fill="#010101" opacity="1.000000" stroke="none" 
	d="
M546.054749,529.812988 
	C535.670532,529.147888 528.903748,523.521790 524.676514,515.075073 
	C516.547729,498.832367 516.311646,482.133789 523.847595,465.611755 
	C528.400635,455.629639 536.745300,450.766937 545.458435,452.103424 
	C553.843872,453.389587 562.159180,462.140259 562.806946,472.235535 
	C563.646667,485.320801 563.357544,498.481781 563.447327,511.610931 
	C563.528076,523.420776 558.670471,528.554749 546.054749,529.812988 
z"/>
<path fill="#020202" opacity="1.000000" stroke="none" 
	d="
M362.451721,485.406219 
	C362.898834,495.664032 362.971466,505.806000 362.958160,515.947876 
	C362.956787,517.010315 362.787537,518.652588 362.121033,519.042358 
	C356.735992,522.191345 351.478149,525.886230 345.654694,527.861023 
	C340.301727,529.676208 335.552124,526.673584 332.650055,521.811096 
	C328.837891,515.423767 328.300751,508.458801 333.112762,502.712982 
	C336.723114,498.401947 341.688507,494.978546 346.588776,492.065155 
	C351.389191,489.211151 356.870209,487.501984 362.451721,485.406219 
z"/>
<path fill="#020202" opacity="1.000000" stroke="none" 
	d="
M641.171387,453.359619 
	C651.964783,457.338928 656.268921,463.995544 655.944153,476.101715 
	C642.630615,476.101715 629.307068,476.101715 615.984619,476.101715 
	C615.901917,462.106598 626.746033,452.187439 641.171387,453.359619 
z"/>
</svg>